<?xml version="1.0" encoding="UTF-8" standalone="no"?>
<!-- Generator: Adobe Illustrator 16.0.0, SVG Export Plug-In . SVG Version: 6.00 Build 0)  -->

<svg
   xmlns:dc="http://purl.org/dc/elements/1.1/"
   xmlns:cc="http://creativecommons.org/ns#"
   xmlns:rdf="http://www.w3.org/1999/02/22-rdf-syntax-ns#"
   xmlns="http://www.w3.org/2000/svg"
   xmlns:sodipodi="http://sodipodi.sourceforge.net/DTD/sodipodi-0.dtd"
   xmlns:inkscape="http://www.inkscape.org/namespaces/inkscape"
   version="1.1"
   id="Layer_1"
   x="0px"
   y="0px"
   width="32px"
   height="32px"
   viewBox="0 0 32 32"
   enable-background="new 0 0 32 32"
   xml:space="preserve"
   inkscape:version="0.91 r13725"
   sodipodi:docname="newlogo.svg"
   inkscape:export-filename="C:\Users\notizklotz\Downloads\ic_launcher.png"
   inkscape:export-xdpi="1440"
   inkscape:export-ydpi="1440"><metadata
     id="metadata34"><rdf:RDF><cc:Work
         rdf:about=""><dc:format>image/svg+xml</dc:format><dc:type
           rdf:resource="http://purl.org/dc/dcmitype/StillImage" /><dc:title></dc:title></cc:Work></rdf:RDF></metadata><defs
     id="defs32" /><sodipodi:namedview
     pagecolor="#ff96ff"
     bordercolor="#666666"
     borderopacity="1"
     objecttolerance="10"
     gridtolerance="10"
     guidetolerance="10"
     inkscape:pageopacity="0"
     inkscape:pageshadow="2"
     inkscape:window-width="2048"
     inkscape:window-height="1099"
     id="namedview30"
     showgrid="false"
     inkscape:snap-nodes="true"
     inkscape:zoom="20.85965"
     inkscape:cx="14.720441"
     inkscape:cy="19.118803"
     inkscape:window-x="-8"
     inkscape:window-y="-8"
     inkscape:window-maximized="1"
     inkscape:current-layer="Layer_1" /><rect
     style="fill:#ffffff;fill-opacity:1"
     id="rect4162"
     width="3.4516399"
     height="20.997477"
     x="3.4516399"
     y="7.7905812" /><rect
     style="fill:#ffffff;fill-opacity:1"
     id="rect4160"
     width="21.956264"
     height="25.407906"
     x="6.5677037"
     y="3.3801527" /><path
     style="fill:#007abf;fill-rule:evenodd;fill-opacity:1"
     inkscape:connector-curvature="0"
     id="path4"
     d="M 27.25928,2.0134566 H 8.3140141 c -1.4269229,0 -2.5834452,1.1731213 -2.5834452,2.6224769 v 1.748318 H 4.8694204 c -1.426923,0 -2.5834453,1.1731213 -2.5834453,2.6224768 V 26.489907 c 0,1.931018 1.5423168,3.496636 3.4445938,3.496636 H 26.398132 c 1.902277,0 3.444593,-1.565618 3.444593,-3.496636 V 4.6359335 c 0,-1.4493556 -1.157384,-2.6224769 -2.583445,-2.6224769 z m 0.861148,24.4764504 c 0,0.963323 -0.77331,1.748318 -1.722296,1.748318 H 5.7305689 c -0.9498468,0 -1.7222969,-0.784995 -1.7222969,-1.748318 V 9.0067283 c 0,-0.4825357 0.3857945,-0.8741589 0.8611484,-0.8741589 H 5.7305689 V 25.615748 c 0,0.48341 0.3849333,0.874159 0.8611483,0.874159 0.4762151,0 0.8611485,-0.390749 0.8611485,-0.874159 V 4.6359335 c 0,-0.4825358 0.3857945,-0.874159 0.8611484,-0.874159 H 27.25928 c 0.474493,0 0.861148,0.3916232 0.861148,0.874159 V 26.489907 z"
     clip-rule="evenodd" /><path
     style="fill:#007abf;fill-rule:evenodd;fill-opacity:1"
     inkscape:connector-curvature="0"
     id="path24"
     d="M 25.967557,15.416975 H 9.6057364 c -0.2376766,0 -0.4305738,0.389102 -0.4305738,0.868534 0,0.479432 0.1928972,0.868534 0.4305738,0.868534 H 25.967557 c 0.236816,0 0.430575,-0.389102 0.430575,-0.868534 0,-0.479432 -0.193759,-0.868534 -0.430575,-0.868534 z"
     clip-rule="evenodd" /><path
     style="fill:#007abf;fill-rule:evenodd;fill-opacity:1"
     inkscape:connector-curvature="0"
     id="path24-1"
     d="M 26.014382,19.521932 H 9.652562 c -0.2376766,0 -0.4305738,0.389102 -0.4305738,0.868534 0,0.479432 0.1928972,0.868534 0.4305738,0.868534 h 16.36182 c 0.236816,0 0.430575,-0.389102 0.430575,-0.868534 0,-0.479432 -0.193759,-0.868534 -0.430575,-0.868534 z"
     clip-rule="evenodd" /><path
     style="fill:#007abf;fill-rule:evenodd;fill-opacity:1"
     inkscape:connector-curvature="0"
     id="path24-7"
     d="M 26.014394,23.796731 H 9.652574 c -0.237677,0 -0.430574,0.389102 -0.430574,0.868534 0,0.479432 0.192897,0.868534 0.430574,0.868534 h 16.36182 c 0.236816,0 0.430575,-0.389102 0.430575,-0.868534 0,-0.479432 -0.193759,-0.868534 -0.430575,-0.868534 z"
     clip-rule="evenodd" /><g
     transform="scale(0.96338056,1.0380114)"
     style="font-style:normal;font-variant:normal;font-weight:normal;font-stretch:normal;font-size:10.84646893px;line-height:125%;font-family:'Baskerville Old Face';-inkscape-font-specification:'Baskerville Old Face, Normal';text-align:start;letter-spacing:0px;word-spacing:0px;writing-mode:lr-tb;text-anchor:start;fill:#007abf;fill-opacity:1;stroke:none;stroke-width:1px;stroke-linecap:butt;stroke-linejoin:miter;stroke-opacity:1"
     id="text3339"><path
       d="m 13.932471,5.8437824 q -0.333656,0 -0.714977,0.021184 -0.815604,0.042369 -1.218109,0.206549 -0.39721,0.1641799 -0.65672,0.5666856 -0.238326,0.3707289 -0.365433,1.0062642 l -0.121811,-0.010592 0.09533,-1.954271 7.165661,0 0.09533,1.954271 -0.121811,0.010592 Q 17.946936,6.908304 17.63976,6.5322789 17.337881,6.1509578 16.755307,5.9867778 16.262767,5.8437824 15.087027,5.8437824 l 0,5.4020496 q 0,0.540205 0.05826,0.805012 0.06355,0.25951 0.227734,0.428986 0.148291,0.153588 0.333656,0.222437 0.19066,0.06885 0.49254,0.08474 l 0,0.121811 -3.384226,0 0,-0.121811 q 0.307176,-0.01589 0.49254,-0.08474 0.190661,-0.06885 0.338952,-0.222437 0.16418,-0.169476 0.222438,-0.428986 0.06355,-0.259511 0.06355,-0.805012 l 0,-5.4020496 z"
       style=""
       id="path4144" /><path
       d="m 25.901719,12.908816 -3.479556,0 0,-0.121811 q 0.471356,-0.04237 0.65672,-0.158883 0.32836,-0.206549 0.32836,-0.571982 0,-0.217141 -0.148291,-0.582574 l -0.09004,-0.222438 -0.508428,-1.249886 -2.330296,0 -0.275399,0.730866 -0.132403,0.32836 q -0.238325,0.582574 -0.238325,0.91623 0,0.195957 0.08474,0.365433 0.09003,0.169476 0.238325,0.275398 0.206549,0.142996 0.529613,0.169476 l 0,0.121811 -2.372665,0 0,-0.121811 q 0.280695,-0.01589 0.49254,-0.137699 0.211845,-0.121811 0.413098,-0.391913 0.169476,-0.217142 0.32836,-0.556094 0.16418,-0.344248 0.428986,-1.027448 l 1.938383,-4.9942486 0.301879,0 2.303815,5.5662296 q 0.259511,0.630239 0.413098,0.900342 0.153588,0.270102 0.333656,0.407802 0.127107,0.09533 0.291287,0.148291 0.16418,0.04767 0.49254,0.08474 l 0,0.121811 z m -3.325968,-3.1247148 -1.112187,-2.743394 -1.048633,2.743394 2.16082,0 z"
       style=""
       id="path4146" /></g></svg>