<?xml version="1.0" encoding="UTF-8" standalone="no"?>
<!-- Generator: Adobe Illustrator 16.0.0, SVG Export Plug-In . SVG Version: 6.00 Build 0)  -->

<svg
   xmlns:dc="http://purl.org/dc/elements/1.1/"
   xmlns:cc="http://creativecommons.org/ns#"
   xmlns:rdf="http://www.w3.org/1999/02/22-rdf-syntax-ns#"
   xmlns:svg="http://www.w3.org/2000/svg"
   xmlns="http://www.w3.org/2000/svg"
   xmlns:sodipodi="http://sodipodi.sourceforge.net/DTD/sodipodi-0.dtd"
   xmlns:inkscape="http://www.inkscape.org/namespaces/inkscape"
   version="1.1"
   id="Layer_1"
   x="0px"
   y="0px"
   width="36"
   height="36"
   viewBox="0 0 36 36"
   enable-background="new 0 0 32 32"
   xml:space="preserve"
   inkscape:version="0.91 r13725"
   sodipodi:docname="news.svg"
   inkscape:export-filename="D:\Downloads\ic_launcher.png"
   inkscape:export-xdpi="90"
   inkscape:export-ydpi="90"><metadata
     id="metadata34"><rdf:RDF><cc:Work
         rdf:about=""><dc:format>image/svg+xml</dc:format><dc:type
           rdf:resource="http://purl.org/dc/dcmitype/StillImage" /><dc:title></dc:title></cc:Work></rdf:RDF></metadata><defs
     id="defs32" /><sodipodi:namedview
     pagecolor="#ffffff"
     bordercolor="#666666"
     borderopacity="1"
     objecttolerance="10"
     gridtolerance="10"
     guidetolerance="10"
     inkscape:pageopacity="0"
     inkscape:pageshadow="2"
     inkscape:window-width="2560"
     inkscape:window-height="1377"
     id="namedview30"
     showgrid="false"
     inkscape:zoom="29.5"
     inkscape:cx="16.329549"
     inkscape:cy="17.253352"
     inkscape:window-x="-8"
     inkscape:window-y="-8"
     inkscape:window-maximized="1"
     inkscape:current-layer="Layer_1" /><path
     style="clip-rule:evenodd;fill:#ffffff;fill-rule:evenodd"
     inkscape:connector-curvature="0"
     id="path4"
     d="m 28.96875,4.5 -18.5625,0 C 9.0081563,4.5 7.875,5.6323125 7.875,7.03125 l 0,1.6875 -0.84375,0 C 5.6331563,8.71875 4.5,9.8510625 4.5,11.25 l 0,16.875 c 0,1.863843 1.5111562,3.375 3.375,3.375 l 20.25,0 c 1.863843,0 3.375,-1.511157 3.375,-3.375 l 0,-21.09375 C 31.5,5.6323125 30.366,4.5 28.96875,4.5 Z m 0.84375,23.625 c 0,0.929812 -0.757688,1.6875 -1.6875,1.6875 l -20.25,0 c -0.9306562,0 -1.6875,-0.757688 -1.6875,-1.6875 l 0,-16.875 c 0,-0.46575 0.378,-0.84375 0.84375,-0.84375 l 0.84375,0 0,16.875 c 0,0.466593 0.3771562,0.84375 0.84375,0.84375 0.4665938,0 0.84375,-0.377157 0.84375,-0.84375 l 0,-20.25 c 0,-0.46575 0.378,-0.84375 0.84375,-0.84375 l 18.5625,0 c 0.464905,0 0.84375,0.378 0.84375,0.84375 l 0,21.09375 z" /><path
     style="clip-rule:evenodd;fill:#ffffff;fill-rule:evenodd"
     inkscape:connector-curvature="0"
     id="path6"
     d="m 20.951437,15.472969 6.75,0 c 0.23372,0 0.421875,-0.189 0.421875,-0.421875 0,-0.232875 -0.188155,-0.421876 -0.421875,-0.421876 l -6.75,0 c -0.23203,0 -0.421875,0.189 -0.421875,0.421876 0,0.232875 0.189845,0.421875 0.421875,0.421875 z" /><path
     style="clip-rule:evenodd;fill:#ffffff;fill-rule:evenodd"
     inkscape:connector-curvature="0"
     id="path8"
     d="m 20.951437,12.941718 6.75,0 c 0.23372,0 0.421875,-0.189 0.421875,-0.421875 0,-0.232875 -0.188155,-0.421875 -0.421875,-0.421875 l -6.75,0 c -0.23203,0 -0.421875,0.189 -0.421875,0.421875 0,0.232875 0.189845,0.421875 0.421875,0.421875 z" /><path
     style="clip-rule:evenodd;fill:#ffffff;fill-rule:evenodd"
     inkscape:connector-curvature="0"
     id="path10"
     d="m 20.951437,10.410468 6.75,0 c 0.23372,0 0.421875,-0.189 0.421875,-0.421875 0,-0.2328735 -0.188155,-0.421875 -0.421875,-0.421875 l -6.75,0 c -0.23203,0 -0.421875,0.1890015 -0.421875,0.421875 0,0.232875 0.189845,0.421875 0.421875,0.421875 z" /><path
     style="clip-rule:evenodd;fill:#ffffff;fill-rule:evenodd"
     inkscape:connector-curvature="0"
     id="path12"
     d="m 18.421875,27.284625 -6.75,0 C 11.439,27.284625 11.25,27.474469 11.25,27.7065 c 0,0.233718 0.189,0.421875 0.421875,0.421875 l 6.75,0 c 0.232032,0 0.421875,-0.188157 0.421875,-0.421875 0,-0.232031 -0.189,-0.421875 -0.421875,-0.421875 z" /><path
     style="clip-rule:evenodd;fill:#ffffff;fill-rule:evenodd"
     inkscape:connector-curvature="0"
     id="path14"
     d="m 18.421875,24.753375 -6.75,0 c -0.232875,0 -0.421875,0.189844 -0.421875,0.421875 0,0.233718 0.189,0.421875 0.421875,0.421875 l 6.75,0 c 0.232032,0 0.421875,-0.188157 0.421875,-0.421875 0,-0.232031 -0.189,-0.421875 -0.421875,-0.421875 z" /><path
     style="clip-rule:evenodd;fill:#ffffff;fill-rule:evenodd"
     inkscape:connector-curvature="0"
     id="path16"
     d="m 18.421875,22.222125 -6.75,0 C 11.439,22.222125 11.25,22.411969 11.25,22.644 c 0,0.233719 0.189,0.421875 0.421875,0.421875 l 6.75,0 c 0.232032,0 0.421875,-0.188156 0.421875,-0.421875 0,-0.232031 -0.189,-0.421875 -0.421875,-0.421875 z" /><path
     style="clip-rule:evenodd;fill:#ffffff;fill-rule:evenodd"
     inkscape:connector-curvature="0"
     id="path18"
     d="m 27.703125,27.284625 -6.75,0 c -0.233718,0 -0.421875,0.189844 -0.421875,0.421875 0,0.233718 0.188157,0.421875 0.421875,0.421875 l 6.75,0 c 0.232032,0 0.421875,-0.188157 0.421875,-0.421875 0,-0.232031 -0.189843,-0.421875 -0.421875,-0.421875 z" /><path
     style="clip-rule:evenodd;fill:#ffffff;fill-rule:evenodd"
     inkscape:connector-curvature="0"
     id="path20"
     d="m 27.703125,24.753375 -6.75,0 c -0.233718,0 -0.421875,0.189844 -0.421875,0.421875 0,0.233718 0.188157,0.421875 0.421875,0.421875 l 6.75,0 c 0.232032,0 0.421875,-0.188157 0.421875,-0.421875 0,-0.232031 -0.189843,-0.421875 -0.421875,-0.421875 z" /><path
     style="clip-rule:evenodd;fill:#ffffff;fill-rule:evenodd"
     inkscape:connector-curvature="0"
     id="path22"
     d="m 27.703125,22.222125 -6.75,0 c -0.233718,0 -0.421875,0.189844 -0.421875,0.421875 0,0.233719 0.188157,0.421875 0.421875,0.421875 l 6.75,0 c 0.232032,0 0.421875,-0.188156 0.421875,-0.421875 0,-0.232031 -0.189843,-0.421875 -0.421875,-0.421875 z" /><path
     style="clip-rule:evenodd;fill:#ffffff;fill-rule:evenodd"
     inkscape:connector-curvature="0"
     id="path24"
     d="m 27.703125,17.159625 -16.03125,0 c -0.232875,0 -0.421875,0.189 -0.421875,0.421875 0,0.232875 0.189,0.421875 0.421875,0.421875 l 16.03125,0 c 0.232032,0 0.421875,-0.189 0.421875,-0.421875 0,-0.232875 -0.189843,-0.421875 -0.421875,-0.421875 z" /><path
     style="clip-rule:evenodd;fill:#ffffff;fill-rule:evenodd"
     inkscape:connector-curvature="0"
     id="path26"
     d="m 27.703125,19.690875 -16.03125,0 c -0.232875,0 -0.421875,0.189844 -0.421875,0.421875 0,0.233719 0.189,0.421875 0.421875,0.421875 l 16.03125,0 c 0.232032,0 0.421875,-0.188156 0.421875,-0.421875 0,-0.232031 -0.189843,-0.421875 -0.421875,-0.421875 z" /><path
     style="clip-rule:evenodd;fill:#ffffff;fill-rule:evenodd"
     inkscape:connector-curvature="0"
     id="path28"
     d="m 12.09375,15.46875 5.90625,0 c 0.466594,0 0.84375,-0.377156 0.84375,-0.84375 l 0,-5.902875 c 0,-0.4665945 -0.377156,-0.84375 -0.84375,-0.84375 l -5.90625,0 c -0.466594,0 -0.84375,0.3771555 -0.84375,0.84375 l 0,5.902875 c 0,0.46575 0.377156,0.84375 0.84375,0.84375 z m 0.84375,-5.90625 4.21875,0 0,4.21875 -4.21875,0 0,-4.21875 z" /></svg>